<?xml version="1.0" standalone="no"?>
<!DOCTYPE svg PUBLIC "-//W3C//DTD SVG 20010904//EN"
 "http://www.w3.org/TR/2001/REC-SVG-20010904/DTD/svg10.dtd">
<svg version="1.0" xmlns="http://www.w3.org/2000/svg"
 width="512.000000pt" height="512.000000pt" viewBox="0 0 512.000000 512.000000"
 preserveAspectRatio="xMidYMid meet">
<metadata>
Created by potrace 1.14, written by Peter Selinger 2001-2017
</metadata>
<g transform="translate(0.000000,512.000000) scale(0.100000,-0.100000)"
fill="#000000" stroke="none">
<path d="M2600 4280 l0 -560 560 -560 560 -561 -560 -560 -560 -560 0 -561 c0
-547 0 -561 18 -542 18 18 384 372 510 493 32 30 167 161 302 291 135 131 270
261 301 291 31 30 161 155 289 279 279 270 296 286 580 560 123 118 245 236
271 262 l48 47 -122 120 c-67 66 -147 143 -177 172 -55 52 -388 373 -649 625
-75 73 -168 163 -207 200 -40 38 -179 173 -310 299 -130 127 -261 253 -289
280 -29 28 -157 151 -285 275 -129 124 -244 235 -257 248 l-23 23 0 -561z"/>
<path d="M1313 3714 l-1113 -1115 1118 -1117 1117 -1117 3 557 2 558 -560 560
-560 560 560 559 560 560 0 555 c0 306 -3 556 -7 555 -5 -1 -509 -502 -1120
-1115z"/>
<path d="M2033 2994 l-392 -394 197 -198 c108 -109 288 -289 400 -400 l202
-202 0 795 c0 437 -3 795 -7 794 -5 -1 -185 -178 -400 -395z"/>
</g>
</svg>
